<svg xmlns="http://www.w3.org/2000/svg" viewBox="0 0 512 512" width="512" height="512">
  <!-- Option 4: Art Nouveau inspired P with flowing curves -->
  <!-- Background circle with PAUSE brand color -->
  <circle cx="256" cy="256" r="256" fill="#be0028"/>

  <!-- Art Nouveau P with organic curves and flourishes -->
  <g fill="#ffffff">
    <!-- Main P stem with subtle curve and elegant base -->
    <path d="M 175 130
             C 175 130, 170 135, 170 145
             L 170 405
             C 170 405, 170 425, 185 425
             C 200 425, 210 420, 215 405
             L 215 300
             C 215 295, 220 290, 225 290
             L 315 290
             C 370 290, 400 260, 405 210
             C 410 160, 385 130, 330 125
             C 320 124, 180 125, 175 130 Z

             M 215 160
             C 220 158, 310 158, 320 160
             C 355 165, 365 185, 365 210
             C 365 235, 350 255, 315 258
             C 305 259, 225 258, 220 256
             C 218 255, 215 250, 215 245
             Z"
          fill-rule="evenodd"/>

    <!-- Decorative flourish at top -->
    <path d="M 165 125
             C 155 120, 150 115, 148 108
             C 146 101, 148 95, 155 93
             C 162 91, 168 95, 170 102
             C 172 109, 170 118, 165 125 Z"
          opacity="0.9"/>

    <!-- Decorative flourish at bottom with Art Nouveau curve -->
    <path d="M 220 415
             C 230 420, 240 423, 248 420
             C 256 417, 260 410, 258 402
             C 256 394, 248 390, 240 392
             C 232 394, 224 405, 220 415 Z"
          opacity="0.9"/>

    <!-- Small organic detail on the bowl -->
    <ellipse cx="340" cy="205" rx="8" ry="12" opacity="0.3" transform="rotate(-15 340 205)"/>
  </g>
</svg>
